<!-- <svg xmlns="http://www.w3.org/2000/svg" version="1.1" xmlns:xlink="http://www.w3.org/1999/xlink" xmlns:svgjs="http://svgjs.dev/svgjs" width="1500" height="1500" viewBox="0 0 1500 1500"><rect width="1500" height="1500" fill="#000000"></rect><g transform="matrix(0.6666666666666666,0,0,0.6666666666666666,248.18828535336752,13.966666666666697)"><svg viewBox="0 0 169 248" data-background-color="#ffffff" preserveAspectRatio="xMidYMid meet" height="2201" width="1500" xmlns="http://www.w3.org/2000/svg" xmlns:xlink="http://www.w3.org/1999/xlink"><g id="tight-bounds" transform="matrix(1,0,0,1,0.3061797752808957,0.4000000000000057)"><svg viewBox="0 0 168.38764044943818 247.2" height="247.2" width="168.38764044943818"><g><svg viewBox="0 0 168.38764044943818 247.2" height="247.2" width="168.38764044943818"><g><svg viewBox="0 0 168.38764044943818 247.2" height="247.2" width="168.38764044943818"><g id="textblocktransform"><svg viewBox="0 0 168.38764044943818 247.2" height="247.2" width="168.38764044943818" id="textblock"><g><svg viewBox="0 0 168.38764044943818 247.2" height="247.2" width="168.38764044943818"><g transform="matrix(1,0,0,1,0,0)"><svg width="168.38764044943818" viewBox="0.5 -35.6 24.25 35.6" height="247.2" data-palette-color="#ea3a36"><path d="M9-32.85L9-32.85Q13-35.6 14.45-35.6 15.9-35.6 18.93-32.98 21.95-30.35 22.7-29.28 23.45-28.2 23.45-26.45L23.45-26.45Q23.45-23.05 22.9-22.4L22.9-22.4Q21.85-20.8 19.65-18.65L19.65-18.65Q22.7-15.75 23.45-14.2L23.45-14.2Q23.85-13.15 24.3-7.83 24.75-2.5 24.75 0L24.75 0 17.25 0Q17.25-2.25 16.85-7.05 16.45-11.85 15.98-12.85 15.5-13.85 14.85-14.6L14.85-14.6 10.4-14.6 10.4 0 3.5 0 3.5-21.9Q3.5-25.95 2.93-27.53 2.35-29.1 0.5-31.4L0.5-31.4 6.5-35.6Q8.1-34.55 9-32.85ZM10.4-24.3L10.4-24.3 10.4-20.45 12.35-20.45Q13.05-20.45 14.15-21.55 15.25-22.65 15.58-23.43 15.9-24.2 15.9-25.05 15.9-25.9 15.58-26.58 15.25-27.25 14.65-28.1 14.05-28.95 13.65-28.95L13.65-28.95Q12.3-28.95 10.25-28.3L10.25-28.3Q10.4-26.35 10.4-24.3Z" opacity="1" transform="matrix(1,0,0,1,0,0)" fill="#ffffff" class="wordmark-text-0" data-fill-palette-color="primary" id="text-0"></path></svg></g></svg></g></svg></g></svg></g></svg></g><defs></defs></svg><rect width="168.38764044943818" height="247.2" fill="none" stroke="none" visibility="hidden"></rect></g></svg></g></svg> -->



<svg xmlns="http://www.w3.org/2000/svg" version="1.1" xmlns:xlink="http://www.w3.org/1999/xlink" xmlns:svgjs="http://svgjs.dev/svgjs" width="308.761" height="308.761" viewBox="0 0 1500 1500">
  <rect width="1500" height="1500" fill="#000000"></rect>
  <g transform="matrix(0.6666666666666666,0,0,0.6666666666666666,248.18828535336752,13.966666666666697)">
    <svg viewBox="0 0 169 248" data-background-color="#ffffff" preserveAspectRatio="xMidYMid meet" height="2201" width="1500" xmlns="http://www.w3.org/2000/svg" xmlns:xlink="http://www.w3.org/1999/xlink">
      <g id="tight-bounds" transform="matrix(1,0,0,1,0.3061797752808957,0.4000000000000057)">
        <svg viewBox="0 0 168.38764044943818 247.2" height="247.2" width="168.38764044943818">
          <g>
            <svg viewBox="0 0 168.38764044943818 247.2" height="247.2" width="168.38764044943818">
              <g>
                <svg viewBox="0 0 168.38764044943818 247.2" height="247.2" width="168.38764044943818">
                  <g id="textblocktransform">
                    <svg viewBox="0 0 168.38764044943818 247.2" height="247.2" width="168.38764044943818" id="textblock">
                      <g>
                        <svg viewBox="0 0 168.38764044943818 247.2" height="247.2" width="168.38764044943818">
                          <g transform="matrix(1,0,0,1,0,0)">
                            <svg width="168.38764044943818" viewBox="0.5 -35.6 24.25 35.6" height="247.2" data-palette-color="#ea3a36">
                              <path d="M9-32.85L9-32.85Q13-35.6 14.45-35.6 15.9-35.6 18.93-32.98 21.95-30.35 22.7-29.28 23.45-28.2 23.45-26.45L23.45-26.45Q23.45-23.05 22.9-22.4L22.9-22.4Q21.85-20.8 19.65-18.65L19.65-18.65Q22.7-15.75 23.45-14.2L23.45-14.2Q23.85-13.15 24.3-7.83 24.75-2.5 24.75 0L24.75 0 17.25 0Q17.25-2.25 16.85-7.05 16.45-11.85 15.98-12.85 15.5-13.85 14.85-14.6L14.85-14.6 10.4-14.6 10.4 0 3.5 0 3.5-21.9Q3.5-25.95 2.93-27.53 2.35-29.1 0.5-31.4L0.5-31.4 6.5-35.6Q8.1-34.55 9-32.85ZM10.4-24.3L10.4-24.3 10.4-20.45 12.35-20.45Q13.05-20.45 14.15-21.55 15.25-22.65 15.58-23.43 15.9-24.2 15.9-25.05 15.9-25.9 15.58-26.58 15.25-27.25 14.65-28.1 14.05-28.95 13.65-28.95L13.65-28.95Q12.3-28.95 10.25-28.3L10.25-28.3Q10.4-26.35 10.4-24.3Z" opacity="1" transform="matrix(1,0,0,1,0,0)" fill="#ffffff" class="wordmark-text-0" data-fill-palette-color="primary" id="text-0"></path>
                            </svg>
                          </g>
                        </svg>
                      </g>
                    </svg>
                  </g>
                </svg>
              </g>
            </svg>
          </g>
          <defs></defs>
        </svg>
        <rect width="168.38764044943818" height="247.2" fill="none" stroke="none" visibility="hidden"></rect>
      </g>
    </svg>
  </g>
</svg>